<?xml version="1.0" encoding="UTF-8"?>
<svg width="103px" height="124px" viewBox="0 0 103 124" version="1.1" xmlns="http://www.w3.org/2000/svg" xmlns:xlink="http://www.w3.org/1999/xlink">
    <!-- Generator: Sketch 48.2 (47327) - http://www.bohemiancoding.com/sketch -->
    <title>ic_hourglass</title>
    <desc>Created with Sketch.</desc>
    <defs></defs>
    <g id="sample" stroke="none" stroke-width="1" fill="none" fill-rule="evenodd" transform="translate(-129.000000, -208.000000)">
        <g id="ic_hourglass" transform="translate(129.000000, 208.000000)" fill="#EF7900" fill-rule="nonzero">
            <ellipse id="Oval" cx="51.5" cy="53.568" rx="1.98076923" ry="1.984"></ellipse>
            <ellipse id="Oval" cx="57.4423077" cy="49.6" rx="1.98076923" ry="1.984"></ellipse>
            <ellipse id="Oval" cx="45.5576923" cy="49.6" rx="1.98076923" ry="1.984"></ellipse>
            <ellipse id="Oval" cx="38.625" cy="45.632" rx="1.98076923" ry="1.984"></ellipse>
            <ellipse id="Oval" cx="63.3846154" cy="45.632" rx="1.98076923" ry="1.984"></ellipse>
            <ellipse id="Oval" cx="70.3173077" cy="41.664" rx="1.98076923" ry="1.984"></ellipse>
            <ellipse id="Oval" cx="32.6826923" cy="41.664" rx="1.98076923" ry="1.984"></ellipse>
            <ellipse id="Oval" cx="51.5" cy="45.632" rx="1.98076923" ry="1.984"></ellipse>
            <ellipse id="Oval" cx="51.5" cy="70.432" rx="1.98076923" ry="1.984"></ellipse>
            <ellipse id="Oval" cx="51.5" cy="76.384" rx="1.98076923" ry="1.984"></ellipse>
            <ellipse id="Oval" cx="51.5" cy="82.336" rx="1.98076923" ry="1.984"></ellipse>
            <ellipse id="Oval" cx="51.5" cy="89.28" rx="1.98076923" ry="1.984"></ellipse>
            <ellipse id="Oval" cx="51.5" cy="95.232" rx="1.98076923" ry="1.984"></ellipse>
            <ellipse id="Oval" cx="51.5" cy="101.184" rx="1.98076923" ry="1.984"></ellipse>
            <path d="M100.94,119.866667 L94.76,119.866667 L94.76,111.6 L84.46,111.6 L84.46,90.4745333 C84.46,84.8945333 81.69548,79.7113333 77.06666,76.6154667 L55.21418,62 L77.06666,47.3845333 C81.69548,44.2886667 84.46,39.1054667 84.46,33.5254667 L84.46,12.4 L94.76,12.4 L94.76,4.13333333 L100.94,4.13333333 C102.07712,4.13333333 103,3.20953333 103,2.06666667 C103,0.9238 102.07712,0 100.94,0 L94.76,0 L92.7,0 L10.3,0 L8.24,0 L2.06,0 C0.92288,0 0,0.9238 0,2.06666667 C0,3.20953333 0.92288,4.13333333 2.06,4.13333333 L8.24,4.13333333 L8.24,12.4 L18.54,12.4 L18.54,33.5254667 C18.54,39.1054667 21.30452,44.2886667 25.93334,47.3845333 L47.78582,62 L25.93334,76.6154667 C21.30452,79.7113333 18.54,84.8945333 18.54,90.4745333 L18.54,111.6 L8.24,111.6 L8.24,119.866667 L2.06,119.866667 C0.92288,119.866667 0,120.790467 0,121.933333 C0,123.0762 0.92288,124 2.06,124 L8.24,124 L10.3,124 L92.7,124 L94.76,124 L100.94,124 C102.07712,124 103,123.0762 103,121.933333 C103,120.790467 102.07712,119.866667 100.94,119.866667 Z M12.36,8.26666667 L12.36,4.13333333 L90.64,4.13333333 L90.64,8.26666667 L84.46,8.26666667 L18.54,8.26666667 L12.36,8.26666667 Z M28.21788,43.9456 C24.73854,41.6164667 22.66,37.7208 22.66,33.5254667 L22.66,12.4 L80.34,12.4 L80.34,33.5254667 C80.34,37.7208 78.26146,41.6164667 74.78212,43.9456 L51.5,59.5158667 L28.21788,43.9456 Z M22.66,90.4745333 C22.66,86.2792 24.73854,82.3835333 28.21788,80.0544 L51.5,64.4841333 L74.78212,80.0544 C78.26146,82.3835333 80.34,86.2792 80.34,90.4745333 L80.34,111.6 L22.66,111.6 L22.66,90.4745333 Z M12.36,115.733333 L18.54,115.733333 L84.46,115.733333 L90.64,115.733333 L90.64,119.866667 L12.36,119.866667 L12.36,115.733333 Z" id="Shape"></path>
        </g>
    </g>
</svg>