<?xml version="1.0" encoding="UTF-8"?>
<svg width="27px" height="20px" viewBox="0 0 27 20" version="1.1" xmlns="http://www.w3.org/2000/svg" xmlns:xlink="http://www.w3.org/1999/xlink">
    <!-- Generator: Sketch 48.2 (47327) - http://www.bohemiancoding.com/sketch -->
    <title>ic_scan</title>
    <desc>Created with Sketch.</desc>
    <defs></defs>
    <g id="-screen1-v7-copy" stroke="none" stroke-width="1" fill="none" fill-rule="evenodd" transform="translate(-153.000000, -415.000000)">
        <g id="ic_scan" transform="translate(153.000000, 414.000000)">
            <g id="Page-1" transform="translate(4.000000, 3.000000)" fill="#EC6501">
                <g id="Group-3">
                    <path d="M5.54300985,3.42191719 C5.75911869,3.42191719 5.94489647,3.27297246 5.99418445,3.05910312 L6.14963117,2.37930412 C6.34678309,1.53528402 7.08231144,0.947143317 7.94295543,0.947143317 L10.6310461,0.947143317 C11.4916522,0.947143317 12.2272185,1.53528402 12.4243704,2.37930412 L12.5798171,3.05910312 C12.6290672,3.26915337 12.8148829,3.42191719 13.0309917,3.42191719 L16.4166969,3.42191719 C17.0953545,3.42191719 17.6451051,3.97568603 17.6451051,4.65930412 L17.6451051,12.9161885 C17.6451051,13.6609122 17.0460286,14.2642911 16.3067089,14.2642911 L2.26725475,14.2642911 C1.52793502,14.2642911 0.928896472,13.6609122 0.928896472,12.9161885 L0.928896472,4.65930412 C0.928896472,3.97568603 1.47864704,3.42191719 2.15730463,3.42191719 L5.54300985,3.42191719 Z M7.58276644e-06,4.65930412 L7.58276644e-06,12.9161885 C7.58276644e-06,14.1764901 1.01609829,15.1999694 2.26725475,15.1999694 L16.3105382,15.1999694 C17.5616947,15.1999694 18.5777854,14.1764901 18.5777854,12.9161885 L18.5777854,4.65930412 C18.5777854,3.46010814 17.6109826,2.48623879 16.4204504,2.48623879 L13.4025473,2.48623879 L13.3304731,2.16925387 C13.0385745,0.897495075 11.9276613,0.0114649246 10.6310461,0.0114649246 L7.94295543,0.0114649246 C6.65009375,0.0114649246 5.53921847,0.897495075 5.24349058,2.16925387 L5.17145429,2.48623879 L2.15730463,2.48623879 C0.966810304,2.48623879 7.58276644e-06,3.46392724 7.58276644e-06,4.65930412 Z" id="Fill-1"></path>
                </g>
                <path d="M3.37777778,4.22222222 C3.84417886,4.22222222 4.22222222,4.60026558 4.22222222,5.06666667 C4.22222222,5.53306775 3.84417886,5.91111111 3.37777778,5.91111111 C2.91142818,5.91111111 2.53333333,5.53306775 2.53333333,5.06666667 C2.53333333,4.60026558 2.91142818,4.22222222 3.37777778,4.22222222" id="Fill-4"></path>
                <path d="M9.28888889,5.12698413 C11.0614836,5.12698413 12.5058201,6.42688695 12.5058201,8.02222222 C12.5058201,9.6175575 11.0614836,10.9174603 9.28888889,10.9174603 C7.51629414,10.9174603 6.07195767,9.6175575 6.07195767,8.02222222 C6.07195767,6.42688695 7.51629414,5.12698413 9.28888889,5.12698413 M9.28888889,11.8222222 C11.6154195,11.8222222 13.5111111,10.1160998 13.5111111,8.02222222 C13.5111111,5.92834467 11.6154195,4.22222222 9.28888889,4.22222222 C6.96235828,4.22222222 5.06666667,5.92465177 5.06666667,8.02222222 C5.06666667,10.1197927 6.96235828,11.8222222 9.28888889,11.8222222" id="Fill-6"></path>
            </g>
            <g id="Group" stroke="#EC6501" stroke-linecap="square">
                <path d="M4.5,1.5 L0.5,1.5" id="Line"></path>
                <path d="M0.5,5.5 L0.5,1.5" id="Line"></path>
            </g>
            <g id="Group" transform="translate(24.500000, 3.000000) scale(-1, 1) translate(-24.500000, -3.000000) translate(22.000000, 0.000000)" stroke="#EC6501" stroke-linecap="square">
                <path d="M4.5,1.5 L0.5,1.5" id="Line"></path>
                <path d="M0.5,5.5 L0.5,1.5" id="Line"></path>
            </g>
            <g id="Group" transform="translate(2.500000, 19.000000) scale(1, -1) translate(-2.500000, -19.000000) translate(0.000000, 16.000000)" stroke="#EC6501" stroke-linecap="square">
                <path d="M4.5,1.5 L0.5,1.5" id="Line"></path>
                <path d="M0.5,5.5 L0.5,1.5" id="Line"></path>
            </g>
            <g id="Group" transform="translate(24.500000, 19.000000) scale(-1, -1) translate(-24.500000, -19.000000) translate(22.000000, 16.000000)" stroke="#EC6501" stroke-linecap="square">
                <path d="M4.5,1.5 L0.5,1.5" id="Line"></path>
                <path d="M0.5,5.5 L0.5,1.5" id="Line"></path>
            </g>
        </g>
    </g>
</svg>